<svg width="117" height="119" viewBox="0 0 117 119" fill="none" xmlns="http://www.w3.org/2000/svg">
<g clip-path="url(#clip0_17_14)">
<rect width="117" height="119" fill="white"/>
<path d="M13.1161 24.2727H20.7866L47.1715 87.625H47.8107L74.1957 24.2727H81.8661V97H75.6161V38.2997H75.0479L50.5096 97H44.4727L19.9343 38.2997H19.3661V97H13.1161V24.2727Z" fill="#1E1E1E"/>
<path d="M107.84 47H101.164C100.667 44.5142 99.7671 42.2178 98.465 40.1108C97.1866 37.9801 95.5768 36.1217 93.6355 34.5355C91.6942 32.9493 89.4925 31.7183 87.0304 30.8423C84.5682 29.9664 81.9049 29.5284 79.0403 29.5284C74.4475 29.5284 70.2572 30.724 66.4693 33.1151C62.7051 35.5062 59.6866 39.0218 57.4139 43.6619C55.1648 48.2784 54.0403 53.9366 54.0403 60.6364C54.0403 67.3835 55.1648 73.0653 57.4139 77.6818C59.6866 82.2983 62.7051 85.8021 66.4693 88.1932C70.2572 90.5606 74.4475 91.7443 79.0403 91.7443C81.9049 91.7443 84.5682 91.3063 87.0304 90.4304C89.4925 89.5545 91.6942 88.3352 93.6355 86.7727C95.5768 85.1866 97.1866 83.3281 98.465 81.1974C99.7671 79.0668 100.667 76.7585 101.164 74.2727H107.84C107.248 77.6108 106.135 80.724 104.502 83.6122C102.892 86.4768 100.832 88.9863 98.323 91.1406C95.8372 93.295 92.9726 94.9759 89.7292 96.1832C86.4859 97.3906 82.9229 97.9943 79.0403 97.9943C72.9324 97.9943 67.511 96.4673 62.7761 93.4134C58.0413 90.3357 54.3244 86.0033 51.6255 80.4162C48.9503 74.8291 47.6127 68.2358 47.6127 60.6364C47.6127 53.0369 48.9503 46.4437 51.6255 40.8565C54.3244 35.2694 58.0413 30.9489 62.7761 27.8949C67.511 24.8172 72.9324 23.2784 79.0403 23.2784C82.9229 23.2784 86.4859 23.8821 89.7292 25.0895C92.9726 26.2732 95.8372 27.9541 98.323 30.1321C100.832 32.2865 102.892 34.7959 104.502 37.6605C106.135 40.5251 107.248 43.6383 107.84 47Z" fill="#1E1E1E"/>
</g>
<defs>
<clipPath id="clip0_17_14">
<rect width="117" height="119" fill="white"/>
</clipPath>
</defs>
</svg>
