<svg width="243" height="129" viewBox="0 0 243 129" fill="none" xmlns="http://www.w3.org/2000/svg">
<path d="M72.1161 24.2727H79.7866L106.172 87.625H106.811L133.196 24.2727H140.866V97H134.616V38.2997H134.048L109.51 97H103.473L78.9343 38.2997H78.3661V97H72.1161V24.2727Z" fill="black"/>
<path d="M166.84 47H160.164C159.667 44.5142 158.767 42.2178 157.465 40.1108C156.187 37.9801 154.577 36.1217 152.635 34.5355C150.694 32.9493 148.492 31.7183 146.03 30.8423C143.568 29.9664 140.905 29.5284 138.04 29.5284C133.448 29.5284 129.257 30.724 125.469 33.1151C121.705 35.5062 118.687 39.0218 116.414 43.6619C114.165 48.2784 113.04 53.9366 113.04 60.6364C113.04 67.3835 114.165 73.0653 116.414 77.6818C118.687 82.2983 121.705 85.8021 125.469 88.1932C129.257 90.5606 133.448 91.7443 138.04 91.7443C140.905 91.7443 143.568 91.3063 146.03 90.4304C148.492 89.5545 150.694 88.3352 152.635 86.7727C154.577 85.1866 156.187 83.3281 157.465 81.1974C158.767 79.0668 159.667 76.7585 160.164 74.2727H166.84C166.248 77.6108 165.135 80.724 163.502 83.6122C161.892 86.4768 159.832 88.9863 157.323 91.1406C154.837 93.295 151.973 94.9759 148.729 96.1832C145.486 97.3906 141.923 97.9943 138.04 97.9943C131.932 97.9943 126.511 96.4673 121.776 93.4134C117.041 90.3357 113.324 86.0033 110.626 80.4162C107.95 74.8291 106.613 68.2358 106.613 60.6364C106.613 53.0369 107.95 46.4437 110.626 40.8565C113.324 35.2694 117.041 30.9489 121.776 27.8949C126.511 24.8172 131.932 23.2784 138.04 23.2784C141.923 23.2784 145.486 23.8821 148.729 25.0895C151.973 26.2732 154.837 27.9541 157.323 30.1321C159.832 32.2865 161.892 34.7959 163.502 37.6605C165.135 40.5251 166.248 43.6383 166.84 47Z" fill="black"/>
</svg>
